<svg id="svg" version="1.1" xmlns="http://www.w3.org/2000/svg" xmlns:xlink="http://www.w3.org/1999/xlink" width="400" height="398.33333333333337" viewBox="0, 0, 400,398.33333333333337"><g id="svgg"><path id="path0" d="M194.921 0.902 C 195.335 0.982,195.935 0.979,196.254 0.896 C 196.573 0.812,196.233 0.747,195.500 0.751 C 194.767 0.754,194.506 0.823,194.921 0.902 M203.254 0.902 C 203.669 0.982,204.269 0.979,204.587 0.896 C 204.906 0.812,204.567 0.747,203.833 0.751 C 203.100 0.754,202.839 0.823,203.254 0.902 M61.167 19.333 C 60.746 19.514,60.685 19.620,61.000 19.620 C 61.275 19.620,61.800 19.491,62.167 19.333 C 62.587 19.153,62.648 19.047,62.333 19.047 C 62.058 19.047,61.533 19.176,61.167 19.333 M190.254 24.902 C 190.669 24.982,191.269 24.979,191.587 24.896 C 191.906 24.812,191.567 24.747,190.833 24.751 C 190.100 24.754,189.839 24.823,190.254 24.902 M207.921 24.902 C 208.335 24.982,208.935 24.979,209.254 24.896 C 209.573 24.812,209.233 24.747,208.500 24.751 C 207.767 24.754,207.506 24.823,207.921 24.902 M7.349 54.167 C 7.341 54.662,7.936 55.509,8.145 55.299 C 8.245 55.200,8.108 54.829,7.840 54.476 C 7.573 54.122,7.352 53.983,7.349 54.167 M211.330 74.747 C 210.355 76.214,210.280 76.485,211.122 75.500 C 211.864 74.631,212.197 74.000,211.914 74.000 C 211.866 74.000,211.603 74.336,211.330 74.747 M135.587 83.902 C 136.002 83.982,136.602 83.979,136.921 83.896 C 137.239 83.812,136.900 83.747,136.167 83.751 C 135.433 83.754,135.173 83.823,135.587 83.902 M141.088 83.906 C 141.595 83.982,142.345 83.980,142.755 83.901 C 143.165 83.822,142.750 83.760,141.833 83.762 C 140.917 83.765,140.581 83.829,141.088 83.906 M256.417 83.905 C 256.921 83.982,257.746 83.982,258.250 83.905 C 258.754 83.829,258.342 83.767,257.333 83.767 C 256.325 83.767,255.912 83.829,256.417 83.905 M351.500 100.875 C 350.901 101.385,350.778 101.588,351.194 101.381 C 351.805 101.078,352.951 99.980,352.624 100.012 C 352.556 100.019,352.050 100.407,351.500 100.875 M348.833 102.542 C 348.283 103.010,348.133 103.240,348.500 103.054 C 349.496 102.548,350.547 101.688,350.167 101.689 C 349.983 101.690,349.383 102.074,348.833 102.542 M74.167 102.667 C 74.042 103.061,74.014 103.459,74.106 103.550 C 74.197 103.642,74.375 103.394,74.500 103.000 C 74.625 102.606,74.653 102.208,74.561 102.116 C 74.469 102.025,74.292 102.272,74.167 102.667 M244.875 141.846 C 244.760 142.144,244.680 142.638,244.695 142.944 C 244.711 143.250,244.856 143.058,245.018 142.517 C 245.332 141.465,245.221 140.944,244.875 141.846 M227.208 241.180 C 227.094 241.477,227.017 242.121,227.038 242.611 C 227.067 243.277,227.142 243.165,227.337 242.167 C 227.613 240.750,227.552 240.283,227.208 241.180 M209.541 340.513 C 209.427 340.811,209.351 341.455,209.372 341.944 C 209.400 342.610,209.475 342.499,209.670 341.500 C 209.946 340.083,209.885 339.617,209.541 340.513 " stroke="none" fill="#ec2424" fill-rule="evenodd"></path><path id="path1" d="M187.200 0.911 C 187.117 0.994,184.601 1.124,181.608 1.200 C 178.615 1.277,174.742 1.412,173.000 1.501 C 171.258 1.590,168.896 1.694,167.750 1.731 C 166.604 1.768,165.667 1.882,165.667 1.984 C 165.667 2.087,164.654 2.203,163.417 2.243 C 160.854 2.326,158.139 2.495,155.000 2.766 C 153.808 2.869,151.858 3.037,150.667 3.139 C 149.475 3.241,147.900 3.408,147.167 3.511 C 146.433 3.613,145.608 3.699,145.333 3.701 C 145.058 3.704,143.558 3.854,142.000 4.035 C 140.442 4.216,138.717 4.415,138.167 4.477 C 137.617 4.540,137.167 4.620,137.167 4.655 C 137.167 4.755,133.948 5.073,132.917 5.076 C 132.412 5.077,132.000 5.173,132.000 5.289 C 132.000 5.405,131.512 5.522,130.917 5.548 C 130.321 5.574,129.158 5.695,128.333 5.816 C 127.508 5.937,126.383 6.087,125.833 6.150 C 125.283 6.212,124.833 6.291,124.833 6.327 C 124.833 6.362,124.008 6.448,123.000 6.518 C 121.354 6.633,120.681 6.756,119.000 7.252 C 118.725 7.333,117.930 7.387,117.234 7.371 C 116.537 7.356,116.053 7.482,116.157 7.651 C 116.263 7.823,115.954 7.887,115.455 7.797 C 114.965 7.708,114.324 7.735,114.032 7.857 C 113.739 7.980,113.125 8.123,112.667 8.176 C 112.208 8.229,111.083 8.439,110.167 8.642 C 109.250 8.846,107.900 9.098,107.167 9.204 C 106.433 9.309,105.458 9.465,105.000 9.551 C 104.542 9.636,103.792 9.770,103.333 9.848 C 102.875 9.927,102.125 10.055,101.667 10.134 C 101.208 10.213,100.758 10.308,100.667 10.345 C 100.575 10.382,100.372 10.389,100.215 10.361 C 100.058 10.333,99.727 10.478,99.480 10.684 C 99.232 10.889,98.866 10.957,98.667 10.833 C 98.467 10.710,98.092 10.785,97.833 11.000 C 97.574 11.215,97.206 11.294,97.015 11.176 C 96.823 11.057,96.479 11.081,96.250 11.228 C 96.021 11.375,95.533 11.529,95.167 11.570 C 93.911 11.710,92.500 11.934,92.500 11.992 C 92.500 12.077,91.295 12.314,90.417 12.403 C 90.004 12.445,89.667 12.583,89.667 12.710 C 89.667 12.837,89.288 12.900,88.825 12.849 C 88.362 12.798,87.904 12.886,87.806 13.045 C 87.708 13.204,87.149 13.335,86.564 13.337 C 85.979 13.339,84.801 13.553,83.947 13.812 C 83.093 14.071,82.306 14.194,82.197 14.086 C 82.089 13.978,82.000 14.041,82.000 14.227 C 82.000 14.413,81.587 14.583,81.083 14.605 C 80.579 14.627,79.792 14.733,79.333 14.842 C 77.890 15.183,77.505 15.280,77.333 15.346 C 77.242 15.381,77.017 15.445,76.833 15.488 C 76.650 15.530,76.425 15.601,76.333 15.645 C 76.242 15.689,75.649 15.777,75.017 15.841 C 74.385 15.906,73.560 16.112,73.184 16.301 C 72.293 16.747,68.603 17.667,67.702 17.667 C 67.316 17.667,67.000 17.803,67.000 17.969 C 67.000 18.135,66.717 18.197,66.371 18.106 C 66.025 18.016,65.645 18.098,65.527 18.290 C 65.409 18.481,65.092 18.553,64.823 18.450 C 64.554 18.347,64.333 18.437,64.333 18.651 C 64.333 18.864,64.199 18.956,64.035 18.855 C 63.872 18.754,63.179 18.904,62.497 19.190 C 61.814 19.475,61.048 19.629,60.794 19.531 C 60.541 19.434,60.333 19.483,60.333 19.640 C 60.333 19.797,60.146 19.912,59.917 19.894 C 59.044 19.828,57.000 20.422,57.000 20.743 C 57.000 20.927,56.700 20.999,56.334 20.904 C 55.967 20.808,55.578 20.873,55.470 21.049 C 55.361 21.225,55.098 21.306,54.886 21.230 C 54.674 21.154,54.083 21.302,53.574 21.559 C 53.064 21.817,52.501 21.937,52.324 21.827 C 52.146 21.717,52.000 21.766,52.000 21.935 C 52.000 22.104,51.362 22.330,50.583 22.438 C 49.804 22.545,48.681 22.875,48.088 23.172 C 47.494 23.469,46.857 23.617,46.671 23.503 C 46.485 23.388,46.333 23.469,46.333 23.683 C 46.333 23.896,46.127 23.992,45.875 23.895 C 45.623 23.799,45.024 23.923,44.545 24.172 C 44.066 24.420,43.334 24.671,42.920 24.728 C 42.506 24.786,42.092 24.931,42.000 25.050 C 41.908 25.170,41.383 25.342,40.833 25.432 C 39.100 25.718,37.848 26.080,37.413 26.423 C 37.181 26.606,36.515 26.811,35.932 26.879 C 35.349 26.946,34.785 27.142,34.679 27.313 C 34.574 27.483,34.040 27.696,33.494 27.784 C 32.947 27.873,32.462 27.976,32.417 28.014 C 32.371 28.052,32.183 28.121,32.000 28.167 C 31.817 28.212,31.592 28.287,31.500 28.333 C 31.408 28.379,31.183 28.454,31.000 28.500 C 30.817 28.546,30.629 28.613,30.583 28.650 C 30.537 28.686,30.137 28.783,29.693 28.865 C 29.249 28.946,28.686 29.179,28.443 29.381 C 28.199 29.583,28.000 29.637,28.000 29.500 C 28.000 29.363,27.801 29.417,27.557 29.619 C 27.314 29.821,26.826 30.032,26.474 30.086 C 26.122 30.141,25.646 30.303,25.417 30.446 C 25.188 30.589,25.000 30.611,25.000 30.496 C 25.000 30.380,24.756 30.530,24.457 30.829 C 24.158 31.127,23.700 31.290,23.438 31.189 C 23.177 31.089,22.409 31.252,21.731 31.552 C 21.054 31.852,20.208 32.154,19.851 32.223 C 19.494 32.293,18.953 32.574,18.649 32.849 C 18.345 33.124,17.850 33.255,17.548 33.139 C 17.247 33.023,17.000 33.089,17.000 33.285 C 17.000 33.611,14.737 34.412,13.750 34.435 C 13.521 34.440,13.333 34.578,13.333 34.742 C 13.333 34.905,13.194 34.953,13.023 34.848 C 12.852 34.742,12.617 34.811,12.500 35.000 C 12.383 35.189,12.148 35.258,11.977 35.152 C 11.806 35.047,11.667 35.128,11.667 35.333 C 11.667 35.538,11.539 35.627,11.382 35.530 C 11.014 35.302,9.000 36.060,9.000 36.426 C 9.000 36.580,8.877 36.630,8.727 36.537 C 8.577 36.445,7.715 36.731,6.811 37.174 C 5.906 37.617,4.829 37.984,4.417 37.990 C 4.004 37.995,3.667 38.159,3.667 38.353 C 3.667 38.547,3.517 38.613,3.333 38.500 C 3.150 38.387,3.000 38.421,3.000 38.576 C 3.000 38.731,2.688 38.882,2.307 38.910 C 1.237 38.991,0.639 39.624,1.015 40.278 C 1.358 40.877,2.093 42.693,2.139 43.056 C 2.154 43.178,2.279 43.390,2.417 43.528 C 2.554 43.665,2.667 44.053,2.667 44.389 C 2.667 44.725,2.817 45.000,3.000 45.000 C 3.183 45.000,3.310 45.112,3.281 45.250 C 3.253 45.387,3.582 46.250,4.013 47.167 C 4.444 48.083,4.829 49.017,4.868 49.242 C 4.907 49.466,5.250 50.046,5.631 50.531 C 6.012 51.015,6.242 51.544,6.142 51.706 C 6.042 51.868,6.128 52.000,6.333 52.000 C 6.538 52.000,6.621 52.138,6.517 52.306 C 6.412 52.475,6.564 52.850,6.854 53.140 C 7.144 53.430,7.295 53.667,7.190 53.667 C 7.086 53.667,7.297 53.963,7.659 54.326 C 8.022 54.688,8.238 55.194,8.140 55.449 C 8.042 55.705,8.195 56.004,8.481 56.113 C 8.766 56.223,9.000 56.606,9.000 56.966 C 9.000 57.325,9.236 57.855,9.524 58.143 C 9.812 58.431,9.944 58.667,9.818 58.667 C 9.691 58.667,9.974 59.173,10.446 59.792 C 10.918 60.411,11.218 61.004,11.113 61.110 C 10.831 61.391,11.868 62.333,12.461 62.333 C 13.188 62.333,14.667 61.614,14.667 61.260 C 14.667 61.095,14.811 61.050,14.986 61.158 C 15.162 61.267,15.575 61.208,15.903 61.027 C 16.231 60.847,17.100 60.454,17.833 60.155 C 18.567 59.856,19.692 59.373,20.333 59.082 C 20.975 58.791,21.681 58.517,21.902 58.475 C 22.123 58.432,22.784 58.157,23.370 57.865 C 23.956 57.573,24.619 57.333,24.844 57.333 C 25.068 57.333,25.444 57.102,25.679 56.818 C 25.914 56.535,26.291 56.374,26.515 56.460 C 26.740 56.546,27.241 56.394,27.628 56.123 C 28.016 55.851,28.333 55.731,28.333 55.855 C 28.333 55.980,28.581 55.876,28.885 55.624 C 29.188 55.373,29.489 55.207,29.555 55.257 C 29.620 55.306,30.122 55.115,30.670 54.832 C 31.218 54.548,31.667 54.386,31.667 54.472 C 31.667 54.557,32.068 54.419,32.559 54.164 C 33.050 53.909,33.575 53.777,33.726 53.870 C 33.877 53.963,34.000 53.872,34.000 53.667 C 34.000 53.462,34.140 53.380,34.310 53.486 C 34.481 53.591,34.715 53.525,34.830 53.339 C 34.945 53.152,35.246 53.000,35.498 53.000 C 35.750 53.000,36.379 52.825,36.895 52.611 C 37.411 52.397,37.908 52.197,38.000 52.166 C 38.446 52.014,39.586 51.577,40.333 51.272 C 40.792 51.085,41.538 50.863,41.993 50.779 C 42.447 50.695,42.927 50.452,43.058 50.239 C 43.190 50.027,43.397 49.952,43.518 50.074 C 43.640 50.195,44.511 49.988,45.453 49.612 C 46.396 49.237,47.339 48.901,47.550 48.867 C 47.760 48.832,48.149 48.624,48.414 48.405 C 48.678 48.185,48.994 48.105,49.115 48.226 C 49.235 48.347,49.672 48.287,50.084 48.094 C 50.496 47.901,51.508 47.543,52.333 47.299 C 53.158 47.055,54.208 46.664,54.667 46.430 C 55.125 46.196,55.829 46.003,56.230 46.002 C 56.632 46.001,57.055 45.848,57.170 45.661 C 57.285 45.475,57.525 45.412,57.702 45.522 C 57.879 45.631,58.582 45.432,59.262 45.078 C 59.943 44.724,60.762 44.473,61.083 44.521 C 61.404 44.569,61.667 44.446,61.667 44.248 C 61.667 44.051,61.754 43.976,61.861 44.083 C 61.967 44.189,62.599 44.049,63.264 43.771 C 63.930 43.493,65.005 43.202,65.654 43.125 C 66.726 42.998,69.416 42.256,70.667 41.743 C 70.942 41.630,71.317 41.526,71.500 41.510 C 71.683 41.495,72.021 41.365,72.250 41.222 C 72.479 41.078,72.667 41.050,72.667 41.159 C 72.667 41.268,72.955 41.203,73.307 41.014 C 73.659 40.826,74.522 40.580,75.224 40.469 C 75.926 40.358,76.756 40.130,77.070 39.962 C 77.383 39.795,77.758 39.677,77.903 39.702 C 78.048 39.726,78.242 39.716,78.333 39.681 C 78.658 39.554,79.839 39.294,80.250 39.258 C 80.479 39.238,80.667 39.087,80.667 38.922 C 80.667 38.757,80.967 38.717,81.333 38.833 C 81.733 38.960,82.000 38.893,82.000 38.667 C 82.000 38.446,82.265 38.373,82.639 38.491 C 82.990 38.603,83.375 38.535,83.495 38.341 C 83.615 38.148,83.836 38.066,83.988 38.159 C 84.139 38.252,84.888 38.108,85.653 37.838 C 86.417 37.568,87.146 37.362,87.272 37.380 C 87.397 37.398,87.575 37.382,87.667 37.345 C 87.758 37.308,88.133 37.225,88.500 37.161 C 89.467 36.993,90.500 36.728,90.500 36.650 C 90.500 36.582,91.098 36.456,92.667 36.194 C 93.125 36.118,93.537 36.024,93.583 35.986 C 93.629 35.948,93.967 35.879,94.333 35.833 C 94.700 35.787,95.037 35.712,95.083 35.666 C 95.129 35.619,95.467 35.542,95.833 35.493 C 97.158 35.318,98.330 35.042,98.687 34.821 C 98.887 34.697,99.602 34.537,100.276 34.466 C 102.463 34.233,102.667 34.193,102.667 33.998 C 102.667 33.892,103.079 33.785,103.583 33.760 C 104.087 33.735,104.950 33.632,105.500 33.530 C 107.291 33.198,108.317 33.003,109.250 32.817 C 109.754 32.716,110.542 32.585,111.000 32.527 C 111.458 32.468,111.908 32.383,112.000 32.338 C 112.092 32.293,112.429 32.283,112.750 32.316 C 113.071 32.349,113.333 32.253,113.333 32.104 C 113.333 31.955,113.821 31.805,114.417 31.771 C 115.013 31.737,115.950 31.625,116.500 31.524 C 117.050 31.422,117.950 31.273,118.500 31.192 C 119.050 31.111,119.875 30.947,120.333 30.826 C 120.792 30.705,121.654 30.624,122.250 30.647 C 122.846 30.669,123.333 30.550,123.333 30.381 C 123.333 30.213,123.863 30.110,124.511 30.154 C 125.159 30.197,125.760 30.119,125.845 29.981 C 125.931 29.843,126.298 29.807,126.662 29.902 C 127.026 29.997,127.588 29.962,127.912 29.825 C 128.658 29.507,129.349 29.388,131.833 29.152 C 134.008 28.945,135.167 28.785,135.167 28.692 C 135.167 28.660,135.842 28.581,136.667 28.517 C 137.492 28.453,138.542 28.316,139.000 28.212 C 139.773 28.037,142.011 27.803,145.667 27.513 C 146.492 27.448,148.067 27.300,149.167 27.184 C 152.769 26.806,154.474 26.671,156.257 26.625 C 157.224 26.599,158.075 26.482,158.148 26.364 C 158.220 26.246,159.188 26.183,160.299 26.223 C 161.409 26.263,162.386 26.185,162.470 26.048 C 162.554 25.912,163.757 25.833,165.142 25.873 C 166.528 25.913,167.724 25.843,167.802 25.718 C 167.879 25.593,169.339 25.518,171.047 25.551 C 172.755 25.585,174.281 25.532,174.439 25.435 C 175.372 24.858,223.961 24.858,224.894 25.435 C 225.052 25.532,226.578 25.585,228.286 25.551 C 229.994 25.518,231.459 25.600,231.541 25.733 C 231.624 25.867,232.817 25.930,234.192 25.874 C 235.567 25.818,236.765 25.890,236.854 26.034 C 236.943 26.178,237.925 26.263,239.035 26.223 C 240.145 26.183,241.113 26.246,241.186 26.364 C 241.259 26.482,242.109 26.603,243.076 26.633 C 244.042 26.663,245.733 26.762,246.833 26.853 C 247.933 26.943,249.621 27.051,250.583 27.092 C 251.546 27.133,252.333 27.254,252.333 27.360 C 252.333 27.466,252.971 27.567,253.750 27.585 C 254.529 27.602,255.617 27.697,256.167 27.794 C 256.717 27.892,258.104 28.015,259.250 28.069 C 260.395 28.123,261.333 28.260,261.333 28.373 C 261.333 28.487,261.821 28.580,262.417 28.580 C 263.012 28.580,264.025 28.676,264.667 28.793 C 267.337 29.280,270.445 29.603,270.874 29.438 C 271.127 29.341,271.333 29.412,271.333 29.596 C 271.333 29.890,276.372 30.575,277.118 30.383 C 277.275 30.343,277.612 30.483,277.867 30.694 C 278.121 30.906,278.630 31.000,278.998 30.904 C 279.365 30.808,279.755 30.874,279.865 31.051 C 279.974 31.228,280.387 31.347,280.782 31.316 C 281.177 31.285,281.612 31.295,281.750 31.338 C 281.887 31.381,282.262 31.448,282.583 31.486 C 282.904 31.523,283.542 31.653,284.000 31.773 C 284.744 31.968,286.108 32.183,288.667 32.507 C 289.125 32.565,289.500 32.636,289.500 32.665 C 289.500 32.734,290.544 32.941,292.000 33.160 C 294.264 33.501,294.843 33.605,295.833 33.847 C 296.383 33.981,297.133 34.120,297.500 34.155 C 297.867 34.190,298.422 34.333,298.734 34.472 C 299.046 34.612,299.459 34.629,299.651 34.510 C 299.843 34.391,300.000 34.462,300.000 34.667 C 300.000 34.872,300.157 34.943,300.348 34.824 C 300.539 34.706,300.943 34.810,301.245 35.055 C 301.715 35.435,301.752 35.427,301.500 35.000 C 301.265 34.600,301.302 34.575,301.686 34.871 C 302.161 35.238,305.894 36.216,307.833 36.482 C 309.544 36.717,310.744 37.018,311.425 37.382 C 311.930 37.653,312.021 37.637,311.822 37.315 C 311.639 37.019,311.699 36.980,312.026 37.183 C 312.280 37.340,312.716 37.501,312.994 37.540 C 313.272 37.579,314.161 37.856,314.968 38.155 C 315.775 38.454,316.638 38.621,316.885 38.526 C 317.131 38.432,317.333 38.517,317.333 38.716 C 317.333 38.915,317.633 38.999,318.000 38.903 C 318.367 38.808,318.667 38.883,318.667 39.070 C 318.667 39.258,319.037 39.340,319.490 39.254 C 320.000 39.156,320.233 39.226,320.102 39.438 C 319.974 39.644,320.106 39.697,320.435 39.571 C 320.734 39.456,321.056 39.488,321.151 39.641 C 321.245 39.794,321.625 39.999,321.995 40.095 C 322.449 40.214,322.590 40.146,322.430 39.886 C 322.299 39.674,322.611 39.774,323.124 40.109 C 323.636 40.444,324.567 40.744,325.193 40.776 C 325.818 40.807,326.331 40.971,326.332 41.139 C 326.333 41.307,326.421 41.357,326.527 41.251 C 326.634 41.144,327.240 41.274,327.875 41.539 C 328.510 41.804,329.173 41.933,329.348 41.824 C 329.523 41.716,329.667 41.795,329.667 42.000 C 329.667 42.205,329.817 42.280,330.000 42.167 C 330.183 42.053,330.521 42.078,330.750 42.222 C 330.979 42.366,331.530 42.533,331.974 42.594 C 332.419 42.655,333.059 42.853,333.398 43.035 C 333.737 43.216,334.184 43.259,334.392 43.131 C 334.609 42.996,334.678 43.045,334.554 43.245 C 334.344 43.586,336.382 44.187,337.250 44.041 C 337.479 44.002,337.667 44.152,337.667 44.374 C 337.667 44.596,337.754 44.691,337.861 44.584 C 337.967 44.477,338.548 44.596,339.152 44.848 C 339.755 45.101,340.351 45.205,340.476 45.080 C 340.601 44.955,340.814 45.033,340.950 45.253 C 341.086 45.473,341.780 45.728,342.491 45.819 C 343.203 45.910,343.938 46.138,344.126 46.326 C 344.313 46.513,344.803 46.667,345.214 46.667 C 345.625 46.667,346.055 46.819,346.170 47.005 C 346.285 47.192,346.509 47.264,346.667 47.167 C 346.825 47.069,347.054 47.152,347.177 47.351 C 347.300 47.549,347.611 47.632,347.867 47.533 C 348.124 47.435,348.333 47.495,348.333 47.667 C 348.333 47.838,348.558 47.893,348.833 47.787 C 349.108 47.682,349.333 47.729,349.333 47.892 C 349.333 48.055,349.737 48.221,350.231 48.262 C 350.725 48.303,351.242 48.519,351.380 48.742 C 351.518 48.965,351.733 49.044,351.859 48.919 C 351.985 48.793,352.405 48.867,352.794 49.083 C 353.182 49.299,353.600 49.482,353.722 49.488 C 353.844 49.495,354.047 49.602,354.171 49.727 C 354.296 49.852,354.609 49.873,354.866 49.775 C 355.123 49.676,355.333 49.749,355.333 49.938 C 355.333 50.126,355.821 50.385,356.417 50.512 C 357.012 50.639,357.681 50.889,357.902 51.067 C 358.123 51.245,358.461 51.294,358.652 51.176 C 358.843 51.057,359.000 51.108,359.000 51.287 C 359.000 51.546,360.196 51.990,361.333 52.153 C 361.425 52.166,361.650 52.267,361.833 52.378 C 362.017 52.489,362.767 52.767,363.500 52.996 C 364.233 53.225,365.283 53.602,365.833 53.834 C 368.179 54.823,369.194 55.150,369.617 55.056 C 369.900 54.993,369.972 55.108,369.812 55.368 C 369.634 55.655,369.725 55.716,370.112 55.567 C 370.417 55.450,370.667 55.500,370.667 55.677 C 370.667 55.855,371.042 56.000,371.500 56.000 C 371.958 56.000,372.333 56.150,372.333 56.333 C 372.333 56.517,372.538 56.667,372.789 56.667 C 373.248 56.667,376.339 57.801,377.412 58.363 C 377.730 58.530,378.218 58.667,378.495 58.667 C 378.773 58.667,379.000 58.826,379.000 59.020 C 379.000 59.214,379.150 59.280,379.333 59.167 C 379.517 59.053,379.667 59.090,379.667 59.248 C 379.667 59.405,380.642 59.813,381.833 60.154 C 383.025 60.495,384.000 60.900,384.000 61.054 C 384.000 61.207,384.300 61.333,384.667 61.333 C 385.033 61.333,385.333 61.479,385.333 61.656 C 385.333 61.834,385.558 61.893,385.833 61.787 C 386.108 61.682,386.333 61.761,386.333 61.964 C 386.333 62.167,386.569 62.333,386.857 62.333 C 387.478 62.333,388.391 61.502,388.095 61.206 C 387.982 61.093,388.080 61.000,388.313 61.000 C 388.560 61.000,388.655 60.783,388.539 60.483 C 388.426 60.186,388.482 60.052,388.670 60.169 C 388.852 60.281,389.019 60.214,389.042 60.020 C 389.065 59.826,389.122 59.554,389.170 59.417 C 389.217 59.279,389.366 58.831,389.499 58.420 C 389.633 58.010,389.899 57.771,390.089 57.889 C 390.298 58.018,390.336 57.940,390.183 57.693 C 390.036 57.455,390.214 56.981,390.609 56.559 C 391.226 55.900,392.673 52.955,392.628 52.450 C 392.618 52.335,392.743 52.149,392.907 52.037 C 393.298 51.769,394.667 48.801,394.667 48.222 C 394.667 47.973,394.961 47.504,395.320 47.179 C 395.679 46.853,395.955 46.493,395.933 46.377 C 395.911 46.261,396.067 45.744,396.280 45.228 C 396.492 44.712,396.667 44.162,396.667 44.006 C 396.667 43.850,396.815 43.672,396.997 43.611 C 397.179 43.550,397.361 43.098,397.401 42.607 C 397.442 42.116,397.593 41.788,397.737 41.877 C 397.970 42.021,398.147 41.264,398.039 40.583 C 398.018 40.446,398.150 40.333,398.333 40.333 C 399.036 40.333,398.624 39.479,397.750 39.124 C 395.961 38.397,394.498 37.841,394.333 37.825 C 394.242 37.817,393.849 37.633,393.460 37.417 C 393.072 37.200,392.669 37.108,392.565 37.212 C 392.461 37.316,392.033 37.161,391.614 36.867 C 391.195 36.574,390.510 36.333,390.092 36.333 C 389.675 36.333,389.333 36.158,389.333 35.944 C 389.333 35.731,389.235 35.654,389.114 35.775 C 388.993 35.896,388.706 35.838,388.476 35.647 C 388.246 35.456,387.635 35.223,387.119 35.129 C 386.603 35.036,386.103 34.856,386.007 34.730 C 385.828 34.493,385.444 34.367,384.000 34.071 C 383.542 33.977,383.077 33.763,382.967 33.595 C 382.857 33.427,382.557 33.247,382.300 33.195 C 382.043 33.143,381.608 33.016,381.333 32.912 C 380.683 32.665,379.063 32.312,378.789 32.356 C 378.671 32.375,378.471 32.222,378.344 32.017 C 378.217 31.811,377.679 31.564,377.150 31.468 C 376.621 31.372,375.995 31.134,375.760 30.939 C 375.525 30.745,375.333 30.680,375.333 30.797 C 375.333 30.914,374.771 30.769,374.083 30.476 C 373.396 30.183,372.467 29.873,372.020 29.787 C 371.573 29.701,370.503 29.328,369.644 28.958 C 368.785 28.589,367.876 28.245,367.624 28.194 C 367.373 28.142,366.942 28.020,366.667 27.921 C 365.294 27.429,362.536 26.667,362.128 26.667 C 361.874 26.667,361.667 26.501,361.667 26.298 C 361.667 26.095,361.456 26.009,361.199 26.108 C 360.942 26.207,360.630 26.185,360.505 26.060 C 360.380 25.935,360.140 25.815,359.972 25.792 C 359.804 25.769,359.629 25.720,359.583 25.683 C 359.461 25.584,358.233 25.300,357.750 25.258 C 357.521 25.238,357.333 25.102,357.333 24.955 C 357.333 24.808,357.108 24.774,356.833 24.879 C 356.557 24.986,356.333 24.889,356.333 24.663 C 356.333 24.430,356.068 24.325,355.714 24.418 C 355.373 24.507,354.811 24.418,354.464 24.220 C 354.117 24.022,353.533 23.815,353.167 23.759 C 352.800 23.704,352.275 23.562,352.000 23.444 C 351.725 23.325,351.313 23.258,351.083 23.295 C 350.854 23.332,350.667 23.190,350.667 22.979 C 350.667 22.768,350.442 22.682,350.167 22.787 C 349.892 22.893,349.667 22.825,349.667 22.637 C 349.667 22.448,349.510 22.391,349.319 22.509 C 349.127 22.627,348.790 22.578,348.569 22.401 C 348.153 22.066,346.211 21.543,345.333 21.530 C 345.058 21.526,344.752 21.409,344.652 21.270 C 344.553 21.131,344.103 20.949,343.652 20.867 C 343.202 20.784,342.833 20.693,342.833 20.664 C 342.833 20.578,341.213 20.319,340.583 20.305 C 340.262 20.298,340.000 20.162,340.000 20.003 C 340.000 19.772,337.777 19.165,335.833 18.866 C 335.650 18.838,335.324 18.705,335.110 18.571 C 334.895 18.436,334.295 18.258,333.776 18.173 C 333.258 18.089,331.195 17.571,329.192 17.022 C 327.189 16.473,325.089 15.957,324.525 15.876 C 323.961 15.794,323.500 15.703,323.500 15.672 C 323.500 15.599,322.390 15.357,321.333 15.200 C 320.875 15.132,320.500 15.047,320.500 15.013 C 320.500 14.901,319.209 14.631,317.838 14.455 C 317.107 14.361,316.326 14.132,316.103 13.947 C 315.879 13.761,315.550 13.700,315.371 13.810 C 315.192 13.921,314.958 13.868,314.849 13.693 C 314.741 13.518,314.359 13.431,314.000 13.500 C 313.641 13.569,313.259 13.482,313.151 13.307 C 313.042 13.132,312.814 13.075,312.644 13.181 C 312.473 13.286,312.148 13.258,311.923 13.119 C 311.697 12.979,311.209 12.819,310.839 12.763 C 308.883 12.465,308.500 12.393,308.500 12.324 C 308.500 12.237,307.603 12.061,306.167 11.868 C 305.617 11.793,305.167 11.705,305.167 11.672 C 305.167 11.638,304.867 11.558,304.500 11.493 C 304.133 11.428,303.458 11.299,303.000 11.205 C 300.743 10.744,300.096 10.638,299.250 10.594 C 298.746 10.567,298.333 10.438,298.333 10.306 C 298.333 10.174,297.846 10.065,297.250 10.062 C 296.654 10.060,295.763 9.901,295.269 9.711 C 294.775 9.520,294.063 9.424,293.686 9.496 C 293.309 9.569,293.000 9.519,293.000 9.386 C 293.000 9.252,292.737 9.120,292.417 9.091 C 291.572 9.016,289.500 8.716,289.500 8.669 C 289.500 8.646,288.975 8.567,288.333 8.491 C 287.692 8.416,286.792 8.264,286.333 8.154 C 284.803 7.787,283.511 7.598,282.250 7.555 C 281.563 7.532,281.000 7.393,281.000 7.246 C 281.000 7.099,280.512 6.984,279.917 6.990 C 277.933 7.011,276.667 6.881,276.667 6.658 C 276.667 6.536,276.254 6.462,275.750 6.493 C 275.246 6.524,274.753 6.431,274.654 6.286 C 274.556 6.141,273.431 5.955,272.154 5.872 C 270.878 5.789,269.569 5.617,269.245 5.489 C 268.921 5.362,268.359 5.336,267.995 5.431 C 267.631 5.526,267.333 5.461,267.333 5.287 C 267.333 5.113,266.744 5.037,266.024 5.120 C 265.304 5.203,264.617 5.172,264.497 5.052 C 264.377 4.932,263.728 4.789,263.056 4.736 C 262.383 4.682,261.158 4.585,260.333 4.521 C 259.508 4.457,258.833 4.377,258.833 4.343 C 258.833 4.216,257.420 4.012,255.333 3.838 C 254.142 3.739,252.567 3.583,251.833 3.491 C 251.100 3.400,249.675 3.252,248.667 3.163 C 247.658 3.074,245.783 2.902,244.500 2.779 C 243.217 2.657,241.342 2.515,240.333 2.464 C 239.325 2.413,238.500 2.349,238.500 2.323 C 238.500 2.255,234.653 2.020,231.484 1.895 C 230.008 1.836,228.636 1.687,228.436 1.563 C 228.235 1.439,226.968 1.344,225.619 1.351 C 224.270 1.358,220.842 1.274,218.000 1.163 C 211.423 0.908,187.400 0.711,187.200 0.911 M157.904 39.207 C 157.787 39.324,156.074 39.482,154.096 39.559 C 152.118 39.637,149.750 39.757,148.833 39.827 C 147.917 39.898,146.117 40.026,144.833 40.112 C 143.550 40.199,141.825 40.354,141.000 40.457 C 140.175 40.560,138.600 40.742,137.500 40.861 C 134.716 41.164,134.047 41.246,132.333 41.499 C 131.508 41.621,130.308 41.760,129.667 41.809 C 126.982 42.010,123.810 42.430,123.500 42.624 C 123.317 42.739,122.792 42.857,122.333 42.887 C 121.875 42.917,120.975 43.043,120.333 43.168 C 119.692 43.292,118.717 43.450,118.167 43.517 C 115.547 43.840,115.056 43.926,114.753 44.114 C 114.474 44.286,112.963 44.518,110.167 44.818 C 109.800 44.857,109.200 44.986,108.833 45.105 C 108.171 45.319,106.260 45.649,104.667 45.823 C 104.208 45.873,103.833 45.953,103.833 46.000 C 103.833 46.047,103.533 46.138,103.167 46.203 C 102.800 46.267,102.125 46.398,101.667 46.493 C 101.208 46.587,100.233 46.744,99.500 46.840 C 98.767 46.936,97.942 47.110,97.667 47.227 C 97.392 47.344,96.717 47.497,96.167 47.568 C 95.617 47.639,94.717 47.835,94.167 48.003 C 93.617 48.172,92.753 48.380,92.247 48.466 C 91.741 48.553,91.066 48.702,90.747 48.799 C 90.079 49.000,88.505 49.318,87.424 49.469 C 87.015 49.527,86.424 49.782,86.110 50.037 C 85.762 50.319,85.634 50.342,85.782 50.095 C 85.952 49.812,85.675 49.836,84.856 50.179 C 84.214 50.447,83.263 50.667,82.744 50.667 C 82.225 50.667,81.657 50.802,81.483 50.967 C 81.309 51.132,80.509 51.356,79.705 51.464 C 78.901 51.571,78.062 51.810,77.841 51.994 C 77.620 52.177,77.344 52.232,77.227 52.116 C 77.111 52.000,76.803 52.082,76.543 52.298 C 76.283 52.513,75.942 52.653,75.785 52.608 C 75.628 52.562,75.144 52.722,74.710 52.962 C 74.101 53.299,73.979 53.304,74.178 52.982 C 74.362 52.684,74.302 52.648,73.968 52.856 C 73.711 53.016,73.285 53.180,73.023 53.220 C 71.604 53.434,68.333 54.471,68.333 54.706 C 68.333 54.856,68.106 54.892,67.829 54.786 C 67.552 54.679,67.102 54.777,66.829 55.004 C 66.556 55.230,66.333 55.303,66.333 55.167 C 66.333 55.030,66.115 55.100,65.848 55.321 C 65.581 55.543,65.206 55.627,65.015 55.509 C 64.823 55.391,64.667 55.462,64.667 55.667 C 64.667 55.872,64.517 55.947,64.333 55.833 C 64.150 55.720,63.813 55.746,63.583 55.892 C 63.354 56.037,63.092 56.172,63.000 56.190 C 62.908 56.209,62.608 56.312,62.333 56.419 C 62.058 56.527,61.271 56.708,60.583 56.822 C 59.896 56.937,59.333 57.182,59.333 57.368 C 59.333 57.554,59.196 57.621,59.028 57.517 C 58.860 57.413,58.298 57.503,57.778 57.716 C 57.258 57.928,56.651 58.140,56.429 58.187 C 55.260 58.430,51.402 59.833,50.765 60.247 C 50.360 60.509,49.890 60.638,49.719 60.532 C 49.548 60.427,49.218 60.571,48.984 60.852 C 48.751 61.133,48.351 61.284,48.096 61.186 C 47.841 61.088,47.302 61.224,46.899 61.487 C 46.496 61.751,46.052 61.963,45.911 61.958 C 45.102 61.930,43.689 62.434,43.850 62.694 C 43.954 62.862,43.768 63.023,43.436 63.051 C 43.105 63.079,42.683 63.136,42.500 63.179 C 42.317 63.222,41.895 63.274,41.564 63.295 C 41.232 63.316,41.053 63.483,41.167 63.667 C 41.280 63.850,41.064 64.019,40.686 64.042 C 40.309 64.065,39.850 64.121,39.667 64.167 C 39.483 64.212,39.099 64.269,38.814 64.292 C 38.528 64.315,38.386 64.482,38.498 64.663 C 38.614 64.852,38.481 64.908,38.184 64.794 C 37.899 64.685,37.667 64.761,37.667 64.964 C 37.667 65.167,37.554 65.310,37.417 65.280 C 37.096 65.213,34.960 66.008,33.588 66.706 C 33.270 66.868,32.852 67.000,32.660 67.000 C 32.469 67.000,31.754 67.249,31.073 67.553 C 30.391 67.857,29.758 68.127,29.667 68.153 C 28.536 68.469,27.296 68.997,24.424 70.386 C 22.549 71.293,20.709 72.094,20.335 72.166 C 19.961 72.238,19.421 72.532,19.134 72.818 C 18.847 73.105,18.477 73.255,18.310 73.152 C 18.144 73.050,18.097 73.197,18.205 73.481 C 18.314 73.764,18.537 73.913,18.702 73.812 C 18.866 73.710,19.000 73.931,19.000 74.302 C 19.000 74.673,19.304 75.139,19.676 75.338 C 20.048 75.537,20.278 75.819,20.188 75.965 C 20.098 76.111,20.535 76.787,21.158 77.467 C 21.782 78.148,22.338 78.809,22.396 78.936 C 22.453 79.063,22.612 79.129,22.750 79.083 C 22.887 79.038,23.000 79.225,23.000 79.500 C 23.000 79.775,23.150 80.000,23.333 80.000 C 23.517 80.000,23.667 80.199,23.667 80.442 C 23.667 80.685,24.199 81.323,24.850 81.859 C 25.500 82.395,26.338 83.321,26.710 83.917 C 27.083 84.512,27.582 85.000,27.820 85.000 C 28.057 85.000,28.458 85.262,28.709 85.583 C 29.132 86.123,29.116 86.130,28.500 85.679 C 28.133 85.411,28.272 85.672,28.809 86.259 C 29.346 86.846,29.838 87.273,29.904 87.207 C 29.970 87.141,31.002 88.043,32.199 89.211 C 33.396 90.378,34.590 91.333,34.854 91.333 C 35.118 91.333,35.333 91.555,35.333 91.827 C 35.333 92.098,35.707 92.414,36.164 92.529 C 36.621 92.644,36.919 92.861,36.826 93.012 C 36.733 93.162,36.959 93.381,37.329 93.499 C 37.698 93.616,38.156 94.002,38.345 94.356 C 38.535 94.710,38.894 95.000,39.143 95.000 C 39.392 95.000,39.682 95.225,39.787 95.500 C 39.893 95.775,40.209 96.000,40.490 96.000 C 40.770 96.000,41.000 96.175,41.000 96.389 C 41.000 96.603,41.091 96.687,41.202 96.576 C 41.402 96.376,41.771 96.614,43.016 97.742 C 44.283 98.891,46.937 100.619,47.133 100.423 C 47.243 100.313,47.333 100.397,47.333 100.611 C 47.333 100.825,47.499 101.000,47.702 101.000 C 47.905 101.000,48.686 101.487,49.439 102.083 C 50.191 102.679,50.812 103.119,50.820 103.062 C 50.856 102.778,52.259 103.537,52.957 104.218 C 53.392 104.642,53.862 104.919,54.002 104.832 C 54.143 104.745,54.443 104.897,54.670 105.170 C 54.896 105.443,55.288 105.667,55.541 105.667 C 55.793 105.667,56.000 105.833,56.000 106.036 C 56.000 106.239,56.213 106.323,56.472 106.223 C 56.732 106.124,57.036 106.279,57.147 106.569 C 57.258 106.858,57.438 107.006,57.548 106.897 C 57.657 106.788,57.965 106.918,58.233 107.186 C 58.501 107.454,58.858 107.588,59.027 107.483 C 59.195 107.379,59.333 107.478,59.333 107.703 C 59.333 107.927,59.434 108.011,59.556 107.888 C 59.679 107.766,60.054 107.914,60.390 108.218 C 60.725 108.521,61.002 108.634,61.005 108.468 C 61.008 108.302,61.121 108.317,61.255 108.500 C 61.565 108.921,63.600 110.000,64.084 110.000 C 64.284 110.000,64.709 110.236,65.028 110.525 C 65.347 110.814,65.809 111.085,66.054 111.127 C 66.299 111.169,66.992 111.463,67.593 111.782 C 68.194 112.100,68.869 112.255,69.093 112.127 C 69.317 111.998,69.385 112.020,69.244 112.174 C 68.776 112.690,71.055 113.421,71.559 112.917 C 71.950 112.526,72.764 109.156,72.638 108.449 C 72.610 108.294,72.617 108.092,72.653 108.000 C 72.776 107.685,73.045 106.499,73.128 105.911 C 73.173 105.588,73.388 105.145,73.605 104.928 C 73.822 104.711,74.000 104.201,74.000 103.794 C 74.000 102.705,74.353 101.973,74.758 102.223 C 74.982 102.362,75.033 102.234,74.896 101.875 C 74.759 101.519,74.869 101.235,75.191 101.111 C 75.497 100.994,75.623 100.699,75.502 100.384 C 75.390 100.092,75.402 99.958,75.529 100.085 C 75.656 100.212,76.002 99.878,76.297 99.343 C 77.083 97.918,80.368 94.333,80.887 94.333 C 81.133 94.333,81.333 94.183,81.333 94.000 C 81.333 93.817,81.493 93.667,81.689 93.667 C 81.884 93.667,82.522 93.321,83.106 92.898 C 83.689 92.475,84.729 91.841,85.417 91.489 C 86.104 91.136,86.667 90.716,86.667 90.555 C 86.667 90.394,86.899 90.351,87.184 90.461 C 87.469 90.570,87.619 90.526,87.519 90.364 C 87.419 90.202,87.569 89.981,87.853 89.872 C 88.169 89.751,88.283 89.812,88.147 90.031 C 88.026 90.228,88.411 90.138,89.004 89.831 C 89.596 89.525,90.470 89.204,90.947 89.118 C 91.423 89.031,91.981 88.821,92.187 88.650 C 92.393 88.479,92.660 88.438,92.781 88.558 C 92.901 88.679,93.000 88.628,93.000 88.444 C 93.000 88.129,93.430 88.013,94.743 87.974 C 95.061 87.965,95.409 87.815,95.516 87.640 C 95.624 87.465,95.859 87.413,96.038 87.523 C 96.216 87.634,96.543 87.580,96.765 87.405 C 96.986 87.229,97.429 87.128,97.750 87.180 C 98.071 87.232,98.333 87.170,98.333 87.041 C 98.333 86.913,98.746 86.772,99.250 86.728 C 99.754 86.684,100.617 86.575,101.167 86.487 C 101.717 86.398,102.767 86.251,103.500 86.161 C 104.233 86.070,105.038 85.920,105.287 85.827 C 105.537 85.735,106.662 85.571,107.787 85.464 C 108.913 85.356,110.283 85.211,110.833 85.142 C 111.383 85.073,112.658 84.996,113.667 84.971 C 114.675 84.946,115.640 84.841,115.812 84.738 C 116.187 84.513,118.096 84.439,136.906 83.917 C 143.833 83.725,143.632 83.678,143.830 85.500 C 143.850 85.683,143.981 86.358,144.121 87.000 C 144.261 87.642,144.448 88.617,144.538 89.167 C 144.627 89.717,144.771 90.542,144.858 91.000 C 144.944 91.458,145.083 92.431,145.166 93.162 C 145.250 93.893,145.486 94.896,145.691 95.392 C 145.896 95.888,145.962 96.459,145.837 96.661 C 145.712 96.864,145.785 97.241,146.000 97.500 C 146.215 97.759,146.312 98.098,146.216 98.253 C 146.120 98.409,146.201 99.203,146.396 100.018 C 146.590 100.833,146.794 101.800,146.847 102.167 C 146.901 102.533,146.974 102.833,147.010 102.833 C 147.046 102.833,147.123 103.283,147.181 103.833 C 147.240 104.383,147.384 105.358,147.503 106.000 C 147.621 106.642,147.716 107.429,147.713 107.750 C 147.710 108.071,147.838 108.333,147.997 108.333 C 148.156 108.333,148.283 108.821,148.280 109.417 C 148.272 111.076,148.723 114.000,148.987 114.000 C 149.116 114.000,149.236 114.188,149.254 114.417 C 149.271 114.646,149.367 115.433,149.467 116.167 C 149.568 116.900,149.712 118.025,149.789 118.667 C 149.950 120.009,150.159 121.145,150.464 122.333 C 150.663 123.105,150.915 124.555,151.132 126.167 C 151.182 126.533,151.339 127.190,151.481 127.627 C 151.623 128.063,151.796 128.963,151.864 129.627 C 151.933 130.290,152.030 131.208,152.079 131.667 C 152.128 132.125,152.289 132.688,152.437 132.917 C 152.585 133.146,152.631 133.454,152.540 133.601 C 152.449 133.749,152.534 134.536,152.729 135.351 C 152.924 136.166,153.127 137.133,153.180 137.500 C 153.234 137.867,153.307 138.167,153.343 138.167 C 153.379 138.167,153.456 138.617,153.515 139.167 C 153.615 140.111,153.827 141.440,154.180 143.333 C 154.266 143.792,154.396 144.542,154.470 145.000 C 154.867 147.479,155.076 148.550,155.250 149.000 C 155.356 149.275,155.474 149.762,155.513 150.083 C 155.552 150.404,155.618 150.779,155.661 150.917 C 155.704 151.054,155.743 151.579,155.748 152.083 C 155.753 152.587,155.849 153.000,155.962 153.000 C 156.074 153.000,156.186 153.487,156.210 154.083 C 156.254 155.189,156.417 156.183,156.798 157.667 C 157.014 158.510,157.278 160.123,157.455 161.689 C 157.509 162.160,157.655 162.711,157.780 162.914 C 157.994 163.261,158.293 165.117,158.437 167.000 C 158.472 167.458,158.622 168.021,158.770 168.250 C 158.918 168.479,158.961 168.793,158.866 168.948 C 158.770 169.103,158.843 169.778,159.028 170.449 C 159.214 171.120,159.441 172.156,159.533 172.751 C 159.626 173.346,159.759 174.208,159.829 174.667 C 159.998 175.765,160.319 177.628,160.518 178.667 C 160.695 179.590,160.853 180.509,161.175 182.500 C 161.293 183.233,161.473 184.058,161.573 184.333 C 161.728 184.755,161.913 186.081,162.075 187.917 C 162.095 188.146,162.199 188.333,162.306 188.333 C 162.412 188.333,162.519 188.821,162.543 189.417 C 162.567 190.012,162.668 190.875,162.767 191.333 C 163.191 193.283,163.728 196.229,163.804 197.023 C 163.849 197.493,163.988 198.045,164.114 198.247 C 164.328 198.594,164.626 200.450,164.770 202.333 C 164.806 202.792,164.962 203.364,165.117 203.606 C 165.273 203.847,165.328 204.117,165.239 204.206 C 165.150 204.294,165.220 204.922,165.393 205.600 C 165.567 206.278,165.772 207.283,165.850 207.833 C 165.927 208.383,166.059 209.283,166.142 209.833 C 166.226 210.383,166.384 211.508,166.494 212.333 C 166.604 213.158,166.791 214.133,166.910 214.500 C 167.028 214.867,167.161 215.467,167.205 215.833 C 167.369 217.214,167.730 219.185,167.907 219.667 C 168.061 220.089,168.247 221.414,168.408 223.250 C 168.428 223.479,168.532 223.667,168.639 223.667 C 168.746 223.667,168.853 224.154,168.876 224.750 C 168.900 225.346,168.996 226.208,169.089 226.667 C 169.182 227.125,169.353 228.025,169.468 228.667 C 169.584 229.308,169.765 230.258,169.871 230.776 C 170.144 232.106,170.360 233.402,170.422 234.083 C 170.452 234.404,170.557 234.667,170.655 234.667 C 170.828 234.667,170.925 235.453,171.003 237.490 C 171.023 238.035,171.203 238.676,171.401 238.915 C 171.599 239.154,171.683 239.428,171.586 239.525 C 171.490 239.621,171.552 240.255,171.725 240.933 C 171.897 241.612,172.098 242.617,172.171 243.167 C 172.496 245.627,172.616 246.224,172.963 247.102 C 173.165 247.617,173.198 247.956,173.035 247.855 C 172.867 247.751,172.875 248.215,173.052 248.919 C 173.407 250.329,173.576 251.247,173.835 253.167 C 173.934 253.900,174.103 254.725,174.211 255.000 C 174.382 255.433,174.659 257.279,174.749 258.583 C 174.765 258.813,174.865 259.000,174.972 259.000 C 175.079 259.000,175.185 259.487,175.206 260.083 C 175.242 261.064,175.362 261.817,175.803 263.833 C 175.883 264.200,175.969 264.500,175.994 264.500 C 176.018 264.500,176.104 265.025,176.184 265.667 C 176.264 266.308,176.414 267.283,176.516 267.833 C 176.618 268.383,176.726 269.096,176.756 269.417 C 176.785 269.737,176.890 270.000,176.988 270.000 C 177.162 270.000,177.258 270.786,177.336 272.824 C 177.357 273.368,177.536 274.009,177.734 274.248 C 177.933 274.487,178.014 274.764,177.914 274.864 C 177.814 274.963,177.889 275.597,178.079 276.272 C 178.270 276.948,178.473 277.950,178.531 278.500 C 178.746 280.546,178.937 281.525,179.296 282.436 C 179.499 282.950,179.529 283.288,179.363 283.185 C 179.067 283.002,179.197 284.018,179.595 285.000 C 179.707 285.275,179.836 285.875,179.881 286.333 C 180.071 288.220,180.364 289.882,180.646 290.667 C 180.811 291.125,180.942 291.725,180.939 292.000 C 180.925 292.995,181.418 296.178,181.661 296.667 C 181.798 296.942,181.843 297.354,181.761 297.583 C 181.678 297.812,181.754 298.000,181.928 298.000 C 182.103 298.000,182.193 298.450,182.129 299.000 C 182.065 299.550,182.128 300.000,182.268 300.000 C 182.409 300.000,182.541 300.262,182.563 300.583 C 182.585 300.904,182.641 301.729,182.688 302.417 C 182.736 303.104,182.887 303.667,183.025 303.667 C 183.162 303.667,183.233 304.042,183.183 304.500 C 183.133 304.958,183.184 305.333,183.296 305.333 C 183.408 305.333,183.523 305.746,183.552 306.250 C 183.624 307.514,183.880 309.337,184.125 310.333 C 184.238 310.792,184.416 311.617,184.520 312.167 C 184.694 313.089,184.796 313.727,185.136 316.000 C 185.204 316.458,185.426 317.254,185.629 317.769 C 185.832 318.284,185.862 318.621,185.697 318.519 C 185.401 318.336,185.530 319.351,185.929 320.333 C 186.040 320.608,186.169 321.208,186.215 321.667 C 186.416 323.676,186.704 325.228,187.024 326.029 C 187.214 326.504,187.344 327.029,187.312 327.196 C 187.280 327.363,187.288 327.575,187.328 327.667 C 187.369 327.758,187.450 328.358,187.508 329.000 C 187.566 329.642,187.713 330.617,187.836 331.167 C 187.958 331.717,188.055 332.429,188.050 332.750 C 188.045 333.071,188.194 333.333,188.381 333.333 C 188.584 333.333,188.632 333.734,188.500 334.333 C 188.379 334.883,188.410 335.333,188.569 335.333 C 188.727 335.333,188.875 335.596,188.896 335.917 C 188.918 336.237,188.974 337.063,189.022 337.750 C 189.069 338.438,189.209 339.000,189.332 339.000 C 189.564 339.000,189.643 339.480,189.683 341.148 C 189.697 341.688,189.796 342.273,189.905 342.449 C 190.013 342.624,190.137 343.233,190.180 343.801 C 190.263 344.905,190.454 345.993,190.798 347.333 C 190.915 347.792,191.087 348.692,191.180 349.333 C 191.272 349.975,191.403 350.875,191.471 351.333 C 191.538 351.792,191.760 352.588,191.963 353.102 C 192.165 353.617,192.191 353.952,192.020 353.846 C 191.847 353.738,191.866 354.134,192.065 354.744 C 192.261 355.343,192.441 356.208,192.465 356.667 C 192.490 357.125,192.629 357.688,192.775 357.917 C 192.920 358.146,192.965 358.454,192.873 358.602 C 192.782 358.749,192.862 359.462,193.051 360.185 C 193.240 360.908,193.444 361.875,193.504 362.333 C 193.564 362.792,193.640 363.167,193.674 363.167 C 193.708 363.167,193.783 363.692,193.841 364.333 C 193.899 364.975,194.047 365.950,194.169 366.500 C 194.292 367.050,194.388 367.762,194.383 368.083 C 194.379 368.404,194.505 368.667,194.664 368.667 C 194.823 368.667,194.950 369.154,194.947 369.750 C 194.938 371.409,195.389 374.333,195.654 374.333 C 195.897 374.333,195.976 374.799,196.017 376.482 C 196.030 377.021,196.130 377.607,196.238 377.782 C 196.346 377.958,196.470 378.566,196.513 379.134 C 196.597 380.239,196.787 381.327,197.131 382.667 C 197.322 383.411,197.487 384.382,197.782 386.500 C 197.833 386.867,197.994 387.524,198.140 387.960 C 198.286 388.397,198.462 389.297,198.531 389.960 C 198.746 392.032,198.908 393.167,198.989 393.167 C 199.031 393.167,199.126 393.834,199.199 394.649 C 199.272 395.464,199.471 396.271,199.643 396.443 C 199.835 396.635,199.915 396.515,199.853 396.127 C 199.798 395.782,199.887 395.330,200.052 395.122 C 200.216 394.914,200.368 394.164,200.389 393.455 C 200.409 392.747,200.556 391.913,200.715 391.602 C 200.874 391.292,201.024 390.392,201.049 389.602 C 201.073 388.813,201.229 387.994,201.393 387.783 C 201.558 387.572,201.725 386.560,201.763 385.533 C 201.802 384.507,201.921 383.667,202.028 383.667 C 202.134 383.667,202.194 383.329,202.159 382.917 C 202.125 382.504,202.236 381.792,202.407 381.333 C 202.577 380.875,202.786 380.050,202.871 379.500 C 202.956 378.950,203.087 378.125,203.163 377.667 C 203.238 377.208,203.383 376.233,203.484 375.500 C 203.586 374.767,203.769 373.792,203.892 373.333 C 204.102 372.543,204.308 371.076,204.440 369.417 C 204.473 369.004,204.587 368.667,204.694 368.667 C 204.801 368.667,204.860 368.329,204.826 367.917 C 204.792 367.504,204.903 366.792,205.073 366.333 C 205.244 365.875,205.453 365.050,205.538 364.500 C 205.623 363.950,205.755 363.125,205.831 362.667 C 205.907 362.208,206.038 361.281,206.122 360.605 C 206.206 359.930,206.388 359.030,206.527 358.605 C 206.778 357.840,206.993 356.347,207.107 354.583 C 207.140 354.079,207.288 353.667,207.436 353.667 C 207.585 353.667,207.615 353.520,207.505 353.341 C 207.394 353.162,207.481 352.374,207.697 351.591 C 207.914 350.808,208.140 349.867,208.200 349.500 C 208.259 349.133,208.395 348.308,208.501 347.667 C 208.608 347.025,208.760 346.050,208.840 345.500 C 208.920 344.950,209.144 343.525,209.339 342.333 C 209.533 341.142,209.749 339.792,209.819 339.333 C 209.889 338.875,209.977 338.462,210.015 338.417 C 210.052 338.371,210.111 338.221,210.144 338.083 C 210.560 336.365,210.700 335.680,210.811 334.833 C 210.884 334.283,211.026 333.608,211.128 333.333 C 211.287 332.905,211.499 331.387,211.806 328.483 C 211.846 328.107,211.972 327.649,212.086 327.464 C 212.200 327.280,212.247 326.837,212.189 326.481 C 212.132 326.125,212.195 325.683,212.328 325.500 C 212.720 324.962,212.965 323.649,212.637 323.852 C 212.470 323.955,212.480 323.658,212.659 323.186 C 212.838 322.717,212.875 322.331,212.742 322.328 C 212.609 322.325,212.673 322.213,212.884 322.078 C 213.095 321.944,213.310 321.233,213.361 320.500 C 213.412 319.767,213.566 318.934,213.703 318.650 C 213.840 318.365,214.035 317.390,214.135 316.483 C 214.236 315.576,214.413 314.308,214.528 313.667 C 214.644 313.025,214.760 312.125,214.786 311.667 C 214.812 311.208,214.949 310.748,215.090 310.643 C 215.231 310.538,215.381 309.713,215.423 308.810 C 215.465 307.906,215.609 307.085,215.742 306.986 C 215.874 306.886,216.039 306.136,216.107 305.319 C 216.174 304.502,216.316 303.608,216.422 303.333 C 216.528 303.058,216.697 302.158,216.799 301.333 C 216.900 300.508,217.076 299.308,217.188 298.667 C 217.301 298.025,217.432 297.200,217.480 296.833 C 217.527 296.467,217.663 295.942,217.782 295.667 C 217.900 295.392,218.064 294.567,218.146 293.833 C 218.228 293.100,218.440 291.826,218.617 291.003 C 218.795 290.179,218.866 289.385,218.775 289.238 C 218.684 289.091,218.778 288.767,218.985 288.519 C 219.191 288.270,219.391 287.227,219.430 286.200 C 219.468 285.173,219.612 284.333,219.748 284.333 C 219.884 284.333,219.942 283.996,219.877 283.583 C 219.811 283.171,219.898 282.458,220.070 282.000 C 220.242 281.542,220.453 280.717,220.538 280.167 C 220.623 279.617,220.755 278.792,220.832 278.333 C 220.909 277.875,221.058 276.825,221.163 276.000 C 221.268 275.175,221.491 274.125,221.658 273.667 C 221.824 273.208,221.979 272.421,222.001 271.917 C 222.088 269.951,222.174 269.333,222.361 269.333 C 222.468 269.333,222.527 268.996,222.493 268.583 C 222.458 268.171,222.569 267.458,222.740 267.000 C 222.910 266.542,223.119 265.717,223.204 265.167 C 223.289 264.617,223.421 263.792,223.496 263.333 C 223.571 262.875,223.706 262.050,223.796 261.500 C 223.885 260.950,224.070 259.975,224.207 259.333 C 224.472 258.095,224.656 256.751,224.766 255.250 C 224.803 254.746,224.955 254.333,225.103 254.333 C 225.251 254.333,225.282 254.187,225.171 254.008 C 225.061 253.829,225.147 253.041,225.364 252.258 C 225.580 251.474,225.806 250.533,225.866 250.167 C 225.926 249.800,226.062 248.975,226.168 248.333 C 226.274 247.692,226.426 246.717,226.507 246.167 C 226.587 245.617,226.813 244.192,227.009 243.000 C 227.206 241.808,227.396 240.510,227.433 240.115 C 227.470 239.720,227.636 239.481,227.803 239.584 C 227.970 239.688,228.015 239.427,227.903 238.998 C 227.792 238.573,227.833 237.979,227.995 237.677 C 228.156 237.375,228.366 236.537,228.462 235.814 C 228.557 235.091,228.728 234.050,228.841 233.500 C 228.954 232.950,229.114 231.975,229.197 231.333 C 229.279 230.692,229.429 229.642,229.530 229.000 C 229.631 228.358,229.710 227.540,229.706 227.182 C 229.702 226.824,229.819 226.374,229.967 226.182 C 230.375 225.655,230.647 224.306,230.303 224.519 C 230.136 224.622,230.147 224.324,230.326 223.852 C 230.504 223.384,230.541 222.998,230.408 222.995 C 230.275 222.992,230.340 222.880,230.551 222.745 C 230.762 222.610,230.977 221.900,231.028 221.167 C 231.079 220.433,231.233 219.601,231.370 219.316 C 231.507 219.032,231.702 218.057,231.802 217.150 C 231.903 216.242,232.080 214.975,232.195 214.333 C 232.311 213.692,232.426 212.792,232.452 212.333 C 232.479 211.875,232.615 211.414,232.757 211.310 C 232.898 211.205,233.048 210.380,233.090 209.476 C 233.132 208.573,233.275 207.752,233.408 207.652 C 233.541 207.553,233.705 206.803,233.773 205.986 C 233.841 205.168,233.983 204.275,234.089 204.000 C 234.194 203.725,234.364 202.825,234.466 202.000 C 234.567 201.175,234.742 199.975,234.855 199.333 C 234.967 198.692,235.098 197.867,235.146 197.500 C 235.194 197.133,235.330 196.608,235.448 196.333 C 235.567 196.058,235.731 195.233,235.812 194.500 C 235.894 193.767,236.106 192.493,236.284 191.670 C 236.461 190.846,236.532 190.052,236.441 189.905 C 236.350 189.758,236.445 189.434,236.651 189.185 C 236.858 188.937,237.058 187.893,237.097 186.867 C 237.135 185.840,237.255 185.000,237.363 185.000 C 237.470 185.000,237.579 184.468,237.603 183.817 C 237.628 183.166,237.734 182.495,237.839 182.325 C 237.944 182.155,238.104 181.525,238.194 180.924 C 238.364 179.802,238.404 179.564,239.008 176.167 C 239.204 175.067,239.407 173.780,239.460 173.308 C 239.513 172.835,239.636 172.310,239.733 172.141 C 239.831 171.972,239.888 171.421,239.861 170.917 C 239.834 170.412,239.904 170.000,240.017 170.000 C 240.130 170.000,240.194 169.663,240.159 169.250 C 240.125 168.837,240.236 168.125,240.407 167.667 C 240.577 167.208,240.786 166.383,240.871 165.833 C 240.956 165.283,241.087 164.458,241.163 164.000 C 241.238 163.542,241.373 162.717,241.462 162.167 C 241.552 161.617,241.737 160.642,241.874 160.000 C 242.138 158.762,242.322 157.418,242.433 155.917 C 242.470 155.412,242.621 155.000,242.770 155.000 C 242.918 155.000,242.949 154.853,242.838 154.674 C 242.727 154.495,242.814 153.708,243.031 152.924 C 243.247 152.141,243.473 151.200,243.533 150.833 C 243.593 150.467,243.734 149.642,243.846 149.000 C 243.959 148.358,244.054 147.608,244.059 147.333 C 244.063 147.058,244.211 146.259,244.386 145.558 C 244.669 144.431,244.793 143.591,245.091 140.782 C 245.132 140.387,245.303 140.148,245.469 140.251 C 245.636 140.354,245.683 140.100,245.574 139.683 C 245.466 139.268,245.517 138.561,245.688 138.111 C 245.859 137.662,246.067 136.815,246.152 136.230 C 246.236 135.645,246.397 134.717,246.509 134.167 C 246.622 133.617,246.781 132.642,246.863 132.000 C 246.945 131.358,247.094 130.308,247.192 129.667 C 247.291 129.025,247.376 128.275,247.381 128.000 C 247.386 127.725,247.606 126.927,247.869 126.226 C 248.132 125.525,248.194 125.046,248.008 125.162 C 247.780 125.303,247.775 125.092,247.993 124.519 C 248.171 124.050,248.208 123.664,248.075 123.662 C 247.942 123.659,248.006 123.546,248.217 123.412 C 248.429 123.277,248.643 122.567,248.695 121.833 C 248.746 121.100,248.900 120.267,249.037 119.983 C 249.174 119.699,249.367 118.724,249.465 117.816 C 249.564 116.909,249.802 115.418,249.994 114.503 C 250.186 113.588,250.274 112.660,250.190 112.441 C 250.106 112.222,250.181 111.995,250.357 111.936 C 250.533 111.878,250.712 111.081,250.755 110.165 C 250.798 109.249,250.942 108.418,251.075 108.319 C 251.208 108.219,251.372 107.469,251.440 106.652 C 251.508 105.835,251.649 104.942,251.753 104.667 C 251.858 104.392,252.045 103.417,252.168 102.500 C 252.451 100.405,252.551 99.787,252.842 98.333 C 252.970 97.692,253.137 96.792,253.214 96.333 C 253.290 95.875,253.415 95.125,253.491 94.667 C 253.568 94.208,253.729 93.308,253.849 92.667 C 253.970 92.025,254.060 91.207,254.050 90.849 C 254.039 90.490,254.165 90.036,254.329 89.839 C 254.492 89.642,254.636 89.035,254.647 88.490 C 254.667 87.524,254.880 85.917,255.009 85.750 C 255.045 85.704,255.087 85.329,255.102 84.917 C 255.145 83.755,255.414 83.713,261.305 83.933 C 264.346 84.046,269.158 84.183,272.000 84.236 C 274.842 84.290,278.442 84.414,280.000 84.513 C 281.558 84.612,283.733 84.749,284.833 84.817 C 285.933 84.886,286.833 84.966,286.833 84.996 C 286.833 85.026,287.358 85.102,288.000 85.165 C 288.642 85.228,290.142 85.379,291.333 85.500 C 292.525 85.621,293.875 85.746,294.333 85.777 C 294.792 85.808,295.247 85.940,295.345 86.070 C 295.442 86.200,296.417 86.375,297.511 86.459 C 298.605 86.543,299.500 86.636,299.500 86.665 C 299.500 86.720,300.483 86.977,301.333 87.143 C 301.608 87.197,302.102 87.355,302.431 87.495 C 302.760 87.635,303.121 87.657,303.234 87.544 C 303.346 87.431,303.638 87.505,303.882 87.707 C 304.125 87.909,304.552 87.988,304.829 87.881 C 305.106 87.775,305.333 87.842,305.333 88.030 C 305.333 88.219,305.500 88.270,305.704 88.144 C 305.908 88.018,306.177 88.080,306.302 88.282 C 306.427 88.484,306.897 88.717,307.348 88.800 C 307.798 88.883,308.204 88.980,308.250 89.017 C 308.296 89.053,308.483 89.121,308.667 89.167 C 308.850 89.212,309.112 89.287,309.250 89.331 C 309.387 89.376,309.612 89.395,309.750 89.373 C 309.887 89.351,310.000 89.508,310.000 89.722 C 310.000 89.936,310.095 90.016,310.210 89.901 C 310.326 89.785,310.739 89.867,311.127 90.083 C 311.516 90.298,311.946 90.443,312.083 90.404 C 312.221 90.365,312.333 90.492,312.333 90.686 C 312.333 90.880,312.471 90.955,312.638 90.851 C 312.806 90.747,312.996 90.822,313.061 91.016 C 313.170 91.343,313.878 91.579,314.936 91.641 C 315.176 91.655,315.280 91.817,315.167 92.000 C 315.053 92.183,315.270 92.333,315.647 92.333 C 316.024 92.333,316.333 92.461,316.333 92.617 C 316.333 92.774,317.271 93.634,318.417 94.530 C 320.805 96.397,321.385 97.012,322.396 98.750 C 322.796 99.438,323.245 100.000,323.395 100.000 C 323.544 100.000,323.667 100.207,323.667 100.459 C 323.667 100.712,323.890 101.104,324.163 101.330 C 324.436 101.557,324.577 101.875,324.477 102.038 C 324.376 102.200,324.453 102.333,324.647 102.333 C 324.841 102.333,325.000 102.633,325.000 103.000 C 325.000 103.367,325.159 103.667,325.353 103.667 C 325.547 103.667,325.621 103.804,325.517 103.972 C 325.413 104.140,325.505 104.702,325.720 105.222 C 325.935 105.742,326.142 106.279,326.180 106.417 C 326.219 106.554,326.292 106.779,326.342 106.917 C 326.393 107.054,326.470 107.317,326.512 107.500 C 326.555 107.683,326.622 107.908,326.661 108.000 C 326.701 108.092,326.792 108.842,326.864 109.667 C 326.936 110.492,327.160 111.570,327.363 112.063 C 327.565 112.556,327.613 113.156,327.468 113.397 C 327.295 113.685,327.414 113.664,327.821 113.333 C 328.159 113.058,328.525 112.864,328.635 112.902 C 329.042 113.043,330.333 112.583,330.333 112.297 C 330.333 112.134,330.633 112.000,331.000 112.000 C 331.367 112.000,331.667 111.837,331.667 111.639 C 331.667 111.440,331.854 111.341,332.083 111.418 C 332.313 111.495,332.699 111.320,332.941 111.029 C 333.285 110.617,333.328 110.610,333.134 111.000 C 332.978 111.315,333.167 111.253,333.644 110.833 C 334.062 110.467,334.500 110.180,334.618 110.197 C 335.153 110.272,336.000 109.889,336.000 109.572 C 336.000 109.380,336.095 109.317,336.212 109.434 C 336.427 109.649,340.078 107.821,342.500 106.285 C 343.233 105.820,344.211 105.347,344.673 105.233 C 345.135 105.119,345.816 104.757,346.185 104.430 C 347.073 103.642,349.963 101.667,350.228 101.667 C 350.343 101.667,350.964 101.264,351.609 100.773 C 352.253 100.281,352.669 100.094,352.532 100.356 C 352.396 100.619,352.497 100.573,352.758 100.255 C 353.019 99.937,353.318 99.763,353.423 99.867 C 353.527 99.972,353.787 99.731,354.000 99.333 C 354.213 98.935,354.470 98.692,354.571 98.793 C 354.866 99.089,356.038 98.331,355.823 97.983 C 355.646 97.698,356.098 97.524,356.750 97.627 C 356.887 97.649,357.000 97.517,357.000 97.333 C 357.000 97.150,357.141 97.000,357.313 97.000 C 357.485 97.000,358.118 96.550,358.720 96.000 C 359.323 95.450,359.954 95.000,360.123 95.000 C 360.292 95.000,360.746 94.701,361.132 94.337 C 362.788 92.771,363.834 91.874,363.838 92.015 C 363.844 92.191,365.543 90.672,368.516 87.833 C 369.668 86.733,370.886 85.597,371.222 85.308 C 373.393 83.443,378.736 76.861,378.391 76.477 C 378.268 76.339,378.364 76.341,378.606 76.480 C 378.897 76.648,379.107 76.497,379.228 76.034 C 379.329 75.648,379.569 75.333,379.761 75.333 C 379.954 75.333,380.027 75.249,379.924 75.146 C 379.821 75.043,380.100 74.567,380.544 74.088 C 381.292 73.281,381.083 72.370,380.266 72.875 C 380.120 72.965,380.000 72.880,380.000 72.686 C 380.000 72.492,379.770 72.333,379.488 72.333 C 379.207 72.333,378.613 72.095,378.170 71.805 C 377.726 71.514,377.205 71.373,377.012 71.492 C 376.820 71.611,376.572 71.475,376.463 71.190 C 376.353 70.904,376.140 70.747,375.988 70.841 C 375.837 70.934,375.619 70.858,375.503 70.672 C 375.388 70.486,375.015 70.333,374.675 70.333 C 374.334 70.333,374.006 70.213,373.944 70.065 C 373.847 69.830,369.456 67.842,369.005 67.828 C 368.911 67.825,368.646 67.704,368.417 67.559 C 368.188 67.413,367.827 67.401,367.615 67.532 C 367.377 67.679,367.321 67.623,367.468 67.385 C 367.629 67.125,367.367 67.000,366.667 67.000 C 366.059 67.000,365.713 66.862,365.833 66.667 C 365.954 66.472,365.608 66.333,365.000 66.333 C 364.392 66.333,364.046 66.195,364.167 66.000 C 364.287 65.805,363.941 65.667,363.333 65.667 C 362.725 65.667,362.379 65.528,362.500 65.333 C 362.614 65.149,362.363 64.995,361.936 64.989 C 361.513 64.984,360.882 64.763,360.534 64.500 C 360.186 64.237,359.767 64.104,359.603 64.206 C 359.439 64.308,358.941 64.153,358.497 63.862 C 358.053 63.571,357.422 63.332,357.095 63.331 C 356.768 63.330,356.050 63.031,355.500 62.667 C 354.950 62.302,354.096 62.003,353.603 62.002 C 353.110 62.001,352.612 61.848,352.497 61.661 C 352.381 61.475,352.148 61.409,351.977 61.514 C 351.806 61.620,351.667 61.547,351.667 61.353 C 351.667 61.159,351.554 61.033,351.417 61.073 C 351.279 61.112,350.642 60.940,350.000 60.690 C 349.358 60.439,348.758 60.206,348.667 60.172 C 348.575 60.137,348.275 60.011,348.000 59.891 C 346.575 59.271,343.473 58.333,342.848 58.333 C 342.455 58.333,341.973 58.173,341.777 57.977 C 341.396 57.596,340.641 57.400,339.397 57.359 C 338.903 57.342,338.713 57.195,338.866 56.947 C 339.028 56.685,338.882 56.620,338.407 56.744 C 338.024 56.844,337.403 56.711,337.028 56.449 C 336.653 56.186,335.793 55.900,335.118 55.814 C 334.442 55.727,333.717 55.514,333.507 55.339 C 333.297 55.165,332.577 54.954,331.907 54.871 C 331.237 54.788,330.496 54.600,330.261 54.453 C 330.026 54.306,329.533 54.158,329.167 54.123 C 328.800 54.088,327.730 53.753,326.789 53.379 C 325.848 53.005,324.989 52.788,324.881 52.897 C 324.772 53.006,324.478 52.925,324.227 52.717 C 323.977 52.509,323.677 52.434,323.561 52.550 C 323.445 52.667,323.145 52.592,322.894 52.384 C 322.644 52.176,322.362 52.082,322.269 52.176 C 322.176 52.269,321.675 52.125,321.157 51.856 C 320.639 51.587,320.091 51.444,319.941 51.537 C 319.790 51.630,319.482 51.592,319.256 51.452 C 319.030 51.312,318.617 51.167,318.339 51.129 C 318.061 51.091,317.458 50.963,317.000 50.844 C 316.542 50.725,315.942 50.573,315.667 50.506 C 315.392 50.439,315.092 50.355,315.000 50.319 C 314.908 50.284,314.705 50.277,314.548 50.306 C 314.391 50.334,314.054 50.183,313.798 49.971 C 313.543 49.759,313.333 49.663,313.333 49.757 C 313.333 49.911,312.151 49.677,310.167 49.131 C 309.084 48.833,307.874 48.622,307.257 48.623 C 306.939 48.624,306.602 48.498,306.506 48.343 C 306.411 48.189,306.033 48.141,305.666 48.237 C 305.300 48.333,305.000 48.276,305.000 48.110 C 305.000 47.945,304.737 47.780,304.417 47.745 C 302.614 47.544,301.537 47.371,300.734 47.151 C 300.239 47.015,299.608 46.860,299.333 46.806 C 299.058 46.752,298.458 46.632,298.000 46.538 C 296.119 46.154,293.742 45.705,292.500 45.499 C 292.133 45.439,291.833 45.364,291.833 45.334 C 291.833 45.304,291.117 45.223,290.242 45.154 C 289.366 45.085,288.466 44.914,288.242 44.774 C 287.842 44.525,287.276 44.440,285.083 44.296 C 284.487 44.257,284.000 44.135,284.000 44.026 C 284.000 43.916,283.512 43.803,282.917 43.776 C 282.321 43.748,281.458 43.625,281.000 43.502 C 280.101 43.261,277.728 42.966,276.250 42.912 C 275.746 42.894,275.333 42.740,275.333 42.570 C 275.333 42.401,275.120 42.344,274.858 42.444 C 274.597 42.545,273.884 42.489,273.275 42.321 C 272.665 42.153,271.092 41.954,269.778 41.878 C 268.464 41.803,267.256 41.658,267.092 41.557 C 266.829 41.394,265.866 41.271,261.333 40.821 C 260.692 40.758,259.342 40.621,258.333 40.518 C 256.532 40.334,253.959 40.102,250.333 39.797 C 249.325 39.712,246.884 39.595,244.909 39.536 C 242.934 39.477,241.220 39.331,241.100 39.212 C 240.811 38.923,239.333 40.328,239.333 40.891 C 239.333 41.134,239.183 41.333,239.000 41.333 C 238.817 41.333,238.704 41.521,238.750 41.750 C 238.796 41.979,238.649 42.130,238.424 42.086 C 238.199 42.041,237.782 42.454,237.499 43.002 C 237.215 43.551,236.812 44.000,236.603 44.000 C 236.393 44.000,236.313 44.091,236.424 44.202 C 236.664 44.442,236.325 44.879,234.368 46.854 C 233.563 47.668,233.020 48.333,233.163 48.333 C 233.306 48.333,233.045 48.631,232.582 48.995 C 232.120 49.358,231.647 50.033,231.531 50.495 C 231.415 50.956,231.095 51.333,230.819 51.333 C 230.543 51.333,230.173 51.712,229.997 52.175 C 229.821 52.638,229.450 53.104,229.174 53.210 C 228.897 53.316,228.744 53.522,228.833 53.667 C 228.923 53.812,228.763 54.020,228.477 54.129 C 228.187 54.241,228.063 54.499,228.197 54.716 C 228.346 54.956,228.291 55.013,228.053 54.866 C 227.824 54.724,227.513 54.972,227.281 55.481 C 227.068 55.950,226.767 56.333,226.613 56.333 C 226.459 56.333,226.333 56.558,226.333 56.833 C 226.333 57.108,226.221 57.296,226.083 57.250 C 225.946 57.204,225.811 57.242,225.785 57.333 C 225.758 57.425,225.194 58.075,224.532 58.777 C 223.869 59.479,223.406 60.181,223.502 60.336 C 223.598 60.492,223.374 60.715,223.005 60.832 C 222.636 60.949,222.333 61.260,222.333 61.522 C 222.333 61.785,222.183 62.000,222.000 62.000 C 221.817 62.000,221.667 62.220,221.667 62.488 C 221.667 62.757,221.362 63.139,220.991 63.338 C 220.619 63.537,220.417 63.866,220.542 64.068 C 220.679 64.290,220.617 64.342,220.386 64.199 C 220.157 64.058,219.846 64.306,219.615 64.815 C 219.401 65.283,219.100 65.667,218.946 65.667 C 218.793 65.667,218.667 65.892,218.667 66.167 C 218.667 66.442,218.554 66.629,218.417 66.583 C 218.279 66.538,218.166 66.575,218.166 66.667 C 218.165 66.758,217.678 67.343,217.083 67.966 C 216.487 68.589,216.000 69.302,216.000 69.549 C 216.000 69.797,215.836 69.963,215.636 69.917 C 215.435 69.871,215.098 70.126,214.886 70.484 C 214.674 70.841,214.200 71.415,213.833 71.759 C 213.451 72.117,213.380 72.292,213.667 72.167 C 213.993 72.026,213.964 72.116,213.583 72.429 C 213.262 72.692,213.000 73.078,213.000 73.287 C 213.000 73.496,212.775 73.667,212.500 73.667 C 212.225 73.667,212.000 73.857,212.000 74.090 C 212.000 74.323,211.176 75.411,210.169 76.507 C 209.163 77.603,208.338 78.712,208.336 78.972 C 208.335 79.232,208.240 79.352,208.127 79.238 C 207.897 79.008,207.000 79.797,207.000 80.229 C 207.000 80.382,206.685 80.703,206.301 80.943 C 205.916 81.183,205.673 81.451,205.760 81.538 C 205.847 81.625,205.525 82.123,205.043 82.644 C 203.616 84.188,203.162 84.805,203.250 85.077 C 203.296 85.218,203.099 85.333,202.814 85.333 C 202.528 85.333,202.387 85.483,202.500 85.667 C 202.613 85.850,202.547 86.000,202.353 86.000 C 202.159 86.000,202.000 86.149,202.000 86.330 C 202.000 86.685,200.041 88.667,199.690 88.667 C 199.419 88.667,196.654 85.657,196.000 84.648 C 195.725 84.225,195.088 83.461,194.583 82.950 C 194.079 82.440,193.667 81.876,193.667 81.697 C 193.667 81.518,193.402 81.175,193.078 80.936 C 192.754 80.696,192.238 80.107,191.932 79.627 C 191.626 79.147,190.621 77.980,189.699 77.033 C 188.777 76.086,188.038 75.225,188.058 75.118 C 188.120 74.785,185.529 71.633,184.917 71.297 C 184.596 71.121,184.333 70.748,184.333 70.469 C 184.333 70.189,184.183 70.053,184.000 70.167 C 183.817 70.280,183.667 70.157,183.667 69.894 C 183.667 69.630,183.329 69.164,182.917 68.859 C 182.504 68.553,182.392 68.405,182.667 68.531 C 182.942 68.657,182.536 68.157,181.765 67.420 C 180.994 66.684,180.457 65.987,180.571 65.874 C 180.685 65.760,180.603 65.667,180.389 65.667 C 180.175 65.667,180.000 65.519,180.000 65.339 C 180.000 65.048,179.356 64.235,177.641 62.358 C 177.352 62.041,177.016 61.522,176.894 61.203 C 176.766 60.872,176.506 60.727,176.284 60.864 C 176.050 61.009,175.987 60.958,176.124 60.735 C 176.250 60.532,176.035 60.197,175.647 59.990 C 175.260 59.782,175.028 59.528,175.132 59.423 C 175.236 59.319,174.837 58.680,174.244 58.003 C 173.651 57.325,172.567 56.054,171.833 55.179 C 171.100 54.303,170.264 53.330,169.975 53.018 C 169.686 52.705,169.349 52.189,169.227 51.870 C 169.100 51.538,168.839 51.393,168.618 51.530 C 168.376 51.680,168.320 51.624,168.470 51.382 C 168.604 51.166,168.479 50.907,168.188 50.795 C 167.901 50.685,167.667 50.413,167.667 50.191 C 167.667 49.969,167.329 49.485,166.917 49.115 C 165.982 48.278,164.667 46.609,164.667 46.261 C 164.667 46.117,164.417 46.000,164.111 46.000 C 163.806 46.000,163.645 45.910,163.755 45.800 C 163.865 45.690,163.515 45.170,162.978 44.645 C 162.440 44.119,162.000 43.534,162.000 43.345 C 162.000 43.155,161.850 43.000,161.667 43.000 C 161.483 43.000,161.333 42.791,161.333 42.536 C 161.333 42.280,161.121 41.990,160.862 41.890 C 160.602 41.791,160.190 41.303,159.945 40.805 C 159.461 39.821,158.243 38.868,157.904 39.207 " stroke="none" fill="#e42427" fill-rule="evenodd"></path><path id="path2" d="" stroke="none" fill="#ec242c" fill-rule="evenodd"></path><path id="path3" d="M369.982 86.583 L 368.833 87.833 370.083 86.685 C 371.247 85.615,371.487 85.333,371.232 85.333 C 371.176 85.333,370.614 85.896,369.982 86.583 " stroke="none" fill="#f02424" fill-rule="evenodd"></path><path id="path4" d="M369.982 86.583 L 368.833 87.833 370.083 86.685 C 371.247 85.615,371.487 85.333,371.232 85.333 C 371.176 85.333,370.614 85.896,369.982 86.583 " stroke="none" fill="#f02424" fill-rule="evenodd"></path></g></svg>